<svg id="Camada_1" data-name="Camada 1" xmlns="http://www.w3.org/2000/svg" viewBox="0 0 1005 300"><defs><style>.cls-1{fill:#fff;}.cls-2,.cls-3,.cls-4,.cls-5{fill:#662d91;stroke-miterlimit:10;}.cls-2,.cls-3,.cls-4{stroke:#fff;}.cls-2{stroke-width:4px;}.cls-3{stroke-width:8px;}.cls-4{stroke-width:3px;}.cls-5{stroke:#662d91;}</style></defs><rect class="cls-1" width="1005" height="300"/><path class="cls-2" d="M472.07,108.45c-1.32,6.9,17.59,14.76,16.89,16.15-.79,1.55-27.37-2.08-43.56-23.73-10.5-14-15.63-34.32-9-52.37,2-5.44,7.38-20.27,21-23.74,16-4.05,33.3,10,32.06,15.91S468.17,43.45,450.62,59c-2.69,2.39-4.48,4.47-5.22,7.37-3.12,12.31,15.2,29.6,26.43,27.9,1.51-.23,7.69-1.17,10.23-5.71a8.44,8.44,0,0,0,.53-1.14c2.67-7.19-13.33-19.18-11.25-27.41,1.75-6.94,16.13-10.34,18.35-7.34C492.13,56,479.27,66,482.35,72c3,5.81,18.33,2.49,19.09,5.87s-13.37,7.66-12.73,11.75,14.57,4,14.68,6.36C503.56,99.42,473.67,100.12,472.07,108.45Z" transform="translate(2.5)"/><path class="cls-3" d="M461.18,72.07c.28.81,1.59,4.54,3.21,4.48,1.94-.06,4.11-5.53,2.73-8.83s-6.38-3.91-9.5-1.59-3.43,6.46-3.45,6.66a11.5,11.5,0,0,0,3.33,8.68c3.72,3.85,10.12,3.68,16-.43" transform="translate(2.5)"/><path class="cls-4" d="M527.93,108.42c1.32,6.91-17.59,14.77-16.89,16.15.79,1.55,27.37-2.08,43.56-23.73,10.5-14,15.63-34.32,9-52.37-2-5.44-7.38-20.27-21-23.73-16-4-33.3,9.94-32.06,15.9S531.83,43.42,549.38,59c2.69,2.38,4.48,4.46,5.22,7.37,3.12,12.3-15.2,29.6-26.43,27.89-1.51-.23-7.69-1.17-10.23-5.7a8.92,8.92,0,0,1-.53-1.15C514.74,80.2,530.74,68.21,528.66,60c-1.75-6.93-16.13-10.33-18.35-7.34C507.87,55.92,520.73,66,517.65,72c-3,5.82-18.33,2.49-19.09,5.88s13.37,7.65,12.73,11.74-14.57,4-14.68,6.36C496.44,99.39,526.33,100.09,527.93,108.42Z" transform="translate(2.5)"/><path class="cls-3" d="M538.82,72c-.28.81-1.59,4.54-3.21,4.48-1.94-.06-4.11-5.53-2.73-8.82s6.38-3.91,9.5-1.59,3.43,6.46,3.45,6.65a11.48,11.48,0,0,1-3.33,8.68c-3.72,3.85-10.12,3.68-16-.43" transform="translate(2.5)"/><path class="cls-5" d="M99.88,164.63h10.06v71.75H99.88Zm4.39,31.86h24.46a9.44,9.44,0,0,0,5.08-1.38,9,9,0,0,0,3.42-3.92,14.72,14.72,0,0,0,0-11.69,9.13,9.13,0,0,0-3.4-3.92,9.36,9.36,0,0,0-5.1-1.38H104.27v-9.57h24.06a22.52,22.52,0,0,1,10.93,2.57,17.91,17.91,0,0,1,7.29,7.27,24,24,0,0,1,0,21.75,18.1,18.1,0,0,1-7.32,7.27,22.4,22.4,0,0,1-10.88,2.57H104.27Zm19.52,7.35,10-2.27,18.34,34.81H140.22Z" transform="translate(2.5)"/><path class="cls-5" d="M171.58,234.46a17.79,17.79,0,0,1-7.67-7.82,27,27,0,0,1-2.64-12.45v-5.77a30.24,30.24,0,0,1,2.54-13,18.16,18.16,0,0,1,7.38-8.18,22.7,22.7,0,0,1,11.64-2.81,18.43,18.43,0,0,1,10.94,3.2,19.89,19.89,0,0,1,6.93,9.27,39.6,39.6,0,0,1,2.39,14.55v3.35H168.57v-8.08h25q-.45-6.27-3.23-9.74a9.08,9.08,0,0,0-7.47-3.48q-5.73,0-8.86,3.75t-3.13,10.6v6.51q0,6.36,3.36,9.76t9.51,3.41a15.77,15.77,0,0,0,6.07-1.24,17.39,17.39,0,0,0,5.37-3.45l6.61,6.61a27.82,27.82,0,0,1-8.53,5.65,24.31,24.31,0,0,1-9.52,2A25.59,25.59,0,0,1,171.58,234.46Z" transform="translate(2.5)"/><path class="cls-5" d="M226.5,236.24a30.54,30.54,0,0,1-7.43-2.67,29.15,29.15,0,0,1-6.36-4.43l6-7.35a33.83,33.83,0,0,0,8.23,4.73A22.44,22.44,0,0,0,235,228.1q6,0,8.95-1.85a6.1,6.1,0,0,0,3-5.55,4.38,4.38,0,0,0-1.63-3.7,9.22,9.22,0,0,0-4-1.65c-1.62-.28-3.88-.53-6.81-.76l-.84,0c-.29,0-.57,0-.84-.07l-.39,0-.4,0a39.37,39.37,0,0,1-8.43-1.46,11.31,11.31,0,0,1-5.74-4q-2.3-2.89-2.3-8.33a16.89,16.89,0,0,1,2.22-9,13.48,13.48,0,0,1,6.61-5.4,29.16,29.16,0,0,1,11-1.8,37.59,37.59,0,0,1,7.62.74,34.09,34.09,0,0,1,6.93,2.19,34.54,34.54,0,0,1,6.36,3.67l-6.07,7.35a34.25,34.25,0,0,0-7.57-3.7,23.12,23.12,0,0,0-7.27-1.23q-5.13,0-7.7,1.75a5.94,5.94,0,0,0-2.56,5.25,3.57,3.57,0,0,0,1.45,3.11,8.53,8.53,0,0,0,3.68,1.38q2.22.34,6.31.59a3.12,3.12,0,0,0,.62.05,5.14,5.14,0,0,1,.66,0h.3a.93.93,0,0,1,.29.05,43.76,43.76,0,0,1,9.15,1.43,12.29,12.29,0,0,1,6.34,4.29q2.56,3.21,2.56,9.27a16.42,16.42,0,0,1-2.36,9.15A14.32,14.32,0,0,1,247,235.3a33.63,33.63,0,0,1-12,1.82A39,39,0,0,1,226.5,236.24Z" transform="translate(2.5)"/><path class="cls-5" d="M265.33,185.2h23.08v9.07H265.33Zm8.16,48q-2.88-3.42-2.88-10.13V170.3h10.06v52.87a4.75,4.75,0,0,0,.74,2.88,2.49,2.49,0,0,0,2.17,1h4.83v9.57h-5.82Q276.38,236.63,273.49,233.2Z" transform="translate(2.5)"/><path class="cls-5" d="M304.44,233.2q-4.69-3.91-4.69-11.91,0-7.59,4.29-11.39t13-3.8h14.55l.69,8.09H317.06c-2.63,0-4.59.59-5.89,1.75s-1.95,2.95-1.95,5.35a6.62,6.62,0,0,0,2.59,5.77q2.6,1.88,7.87,1.88,5.76,0,8.6-1.23t2.84-3.85l1,7.2a11.7,11.7,0,0,1-3.28,3.4,14.27,14.27,0,0,1-4.51,2,23.17,23.17,0,0,1-5.77.66Q309.13,237.12,304.44,233.2Zm26.68-29.27q0-5-2.69-7.81t-7.62-2.79a19.38,19.38,0,0,0-6,.94,17.75,17.75,0,0,0-5.2,2.61l-7.35-5a19.22,19.22,0,0,1,7.67-5.45,27.84,27.84,0,0,1,10.58-1.94,24.26,24.26,0,0,1,10.89,2.24,15.62,15.62,0,0,1,6.91,6.51,20.86,20.86,0,0,1,2.37,10.28v32.89h-9.57Z" transform="translate(2.5)"/><path class="cls-5" d="M366,216.31c0,3.59.92,6.36,2.74,8.31s4.4,2.94,7.72,2.94,5.83-.87,7.64-2.62,2.72-4.22,2.72-7.44l.69,10.7a14.86,14.86,0,0,1-5.13,6.36,14.52,14.52,0,0,1-8.73,2.56q-8.49,0-13.1-5.45T356,216.31V185.2H366Zm20.82-31.11h10v51.18h-10Z" transform="translate(2.5)"/><path class="cls-5" d="M412.14,185.2H422.2v51.18H412.14ZM437,194.86a12.14,12.14,0,0,0-4.68-.84q-4.78,0-7.43,2.64A9.89,9.89,0,0,0,422.2,204l-1-9.86a18.81,18.81,0,0,1,6.11-7.12,14.41,14.41,0,0,1,8.29-2.54,18.66,18.66,0,0,1,6.34,1,14,14,0,0,1,4.95,3l-6.56,8.88A8.32,8.32,0,0,0,437,194.86Z" transform="translate(2.5)"/><path class="cls-5" d="M457.46,233.2q-4.68-3.91-4.68-11.91,0-7.59,4.29-11.39t13-3.8h14.55l.69,8.09H470.09c-2.63,0-4.59.59-5.89,1.75s-1.95,2.95-1.95,5.35a6.62,6.62,0,0,0,2.59,5.77c1.72,1.25,4.35,1.88,7.86,1.88q5.78,0,8.61-1.23t2.83-3.85l1,7.2a11.83,11.83,0,0,1-3.28,3.4,14.37,14.37,0,0,1-4.51,2,23.17,23.17,0,0,1-5.77.66Q462.16,237.12,457.46,233.2Zm26.68-29.27q0-5-2.68-7.81t-7.62-2.79a19.38,19.38,0,0,0-6,.94,17.93,17.93,0,0,0-5.21,2.61l-7.35-5A19.29,19.29,0,0,1,463,186.4a27.88,27.88,0,0,1,10.58-1.94,24.31,24.31,0,0,1,10.9,2.24,15.54,15.54,0,0,1,6.9,6.51,20.86,20.86,0,0,1,2.37,10.28v32.89h-9.57Z" transform="translate(2.5)"/><path class="cls-5" d="M509,185.2h10.06v51.18H509Zm31.07,20.17q0-5.43-2.81-8.39t-7.89-3q-4.93,0-7.62,2.62a9.77,9.77,0,0,0-2.69,7.34l-1-9.86a18.37,18.37,0,0,1,6.19-7.15,15,15,0,0,1,8.46-2.51q8.34,0,12.9,5.44t4.56,15.42v31.06H540.07Z" transform="translate(2.5)"/><path class="cls-5" d="M561.47,185.2h23.08v9.07H561.47Zm8.16,48q-2.88-3.42-2.88-10.13V170.3h10.06v52.87a4.82,4.82,0,0,0,.74,2.88,2.5,2.5,0,0,0,2.17,1h4.83v9.57h-5.82Q572.52,236.63,569.63,233.2Z" transform="translate(2.5)"/><path class="cls-5" d="M626.47,164.68h10.06v71.7H626.47Zm4.93,0h40.19v9.57H631.4Zm0,32h34.77v9.56H631.4Z" transform="translate(2.5)"/><path class="cls-5" d="M683.43,164.68h10.06v10.06H683.43Zm0,20.52h10.06v51.18H683.43Z" transform="translate(2.5)"/><path class="cls-5" d="M708.78,185.2h10.06v51.18H708.78Zm31.07,20.17q0-5.43-2.81-8.39t-7.89-3q-4.93,0-7.62,2.62c-1.8,1.74-2.69,4.19-2.69,7.34l-1-9.86A18.29,18.29,0,0,1,724,187a15,15,0,0,1,8.46-2.51q8.34,0,12.9,5.44t4.56,15.42v31.06H739.85Z" transform="translate(2.5)"/><path class="cls-5" d="M771.83,234.83a15.39,15.39,0,0,1-6-7.12,27.76,27.76,0,0,1-2.07-11.25V205.17a28.34,28.34,0,0,1,2-11.29,15.26,15.26,0,0,1,5.89-7.13,17.05,17.05,0,0,1,9.3-2.44,15.41,15.41,0,0,1,8.31,2.36,17.55,17.55,0,0,1,6.09,6.66l-1,10.46a12.16,12.16,0,0,0-1.18-5.58,8,8,0,0,0-3.43-3.52,11.31,11.31,0,0,0-5.45-1.21,9.76,9.76,0,0,0-7.72,3.11q-2.73,3.1-2.73,8.73v11.14c0,3.72.91,6.58,2.73,8.61a9.88,9.88,0,0,0,7.72,3,11,11,0,0,0,5.45-1.26,8.28,8.28,0,0,0,3.43-3.62,12.55,12.55,0,0,0,1.18-5.67l.69,10.8a14.63,14.63,0,0,1-5,6.36,14,14,0,0,1-8.56,2.56A17.91,17.91,0,0,1,771.83,234.83Zm22.46-70.15h10.06v71.7H794.29Z" transform="translate(2.5)"/><path class="cls-5" d="M828.47,234.46a17.73,17.73,0,0,1-7.67-7.82,27,27,0,0,1-2.64-12.45v-5.77a30.24,30.24,0,0,1,2.54-13,18.14,18.14,0,0,1,7.37-8.18,22.7,22.7,0,0,1,11.64-2.81,18.46,18.46,0,0,1,10.95,3.2,20,20,0,0,1,6.93,9.27A39.81,39.81,0,0,1,860,211.48v3.35H825.46v-8.08h24.95q-.43-6.27-3.23-9.74a9.07,9.07,0,0,0-7.47-3.48q-5.72,0-8.85,3.75t-3.13,10.6v6.51q0,6.36,3.35,9.76t9.52,3.41a15.77,15.77,0,0,0,6.07-1.24,17.51,17.51,0,0,0,5.37-3.45l6.61,6.61a27.94,27.94,0,0,1-8.53,5.65,24.34,24.34,0,0,1-9.52,2A25.57,25.57,0,0,1,828.47,234.46Z" transform="translate(2.5)"/><path class="cls-5" d="M873.79,185.2h10.06v51.18H873.79Zm24.8,9.66a12.07,12.07,0,0,0-4.68-.84q-4.78,0-7.42,2.64a9.89,9.89,0,0,0-2.64,7.32l-1-9.86a18.75,18.75,0,0,1,6.12-7.12,14.4,14.4,0,0,1,8.28-2.54,18.62,18.62,0,0,1,6.34,1,14.11,14.11,0,0,1,5,3L902,197.33A8.42,8.42,0,0,0,898.59,194.86Z" transform="translate(2.5)"/></svg>