<svg id="Camada_1" data-name="Camada 1" xmlns="http://www.w3.org/2000/svg" viewBox="0 0 1005 300"><defs><style>.cls-1{fill:#fff;}.cls-2,.cls-3,.cls-4,.cls-5{fill:#662d91;stroke-miterlimit:10;}.cls-2,.cls-3,.cls-4{stroke:#fff;}.cls-2{stroke-width:4px;}.cls-3{stroke-width:8px;}.cls-4{stroke-width:3px;}.cls-5{stroke:#662d91;}</style></defs><rect class="cls-1" width="1005" height="300"/><path class="cls-2" d="M39.94,175.59c-1,5.2,13.24,11.12,12.71,12.16s-20.6-1.57-32.79-17.87C12,159.31,8.09,144,13,130.45c1.49-4.1,5.56-15.26,15.84-17.87,12-3,25.08,7.49,24.14,12s-16,2.1-29.23,13.8c-2,1.8-3.38,3.36-3.93,5.55-2.35,9.27,11.44,22.29,19.9,21,1.13-.17,5.79-.88,7.7-4.29a6.41,6.41,0,0,0,.4-.86c2-5.41-10-14.44-8.47-20.64,1.32-5.22,12.14-7.78,13.82-5.53,1.83,2.48-7.85,10-5.53,14.56s13.8,1.87,14.37,4.42S52,158.32,52.47,161.4s11,3,11.05,4.79C63.65,168.79,41.14,169.32,39.94,175.59Z" transform="translate(2.5)"/><path class="cls-3" d="M31.74,148.19c.21.61,1.19,3.42,2.42,3.38,1.46,0,3.09-4.16,2.05-6.64s-4.8-3-7.15-1.2a7.58,7.58,0,0,0-2.6,5A8.68,8.68,0,0,0,29,155.28c2.8,2.89,7.61,2.76,12.08-.33" transform="translate(2.5)"/><path class="cls-4" d="M82,175.57c1,5.2-13.25,11.12-12.72,12.16s20.61-1.57,32.8-17.87c7.9-10.57,11.77-25.84,6.82-39.43-1.5-4.1-5.56-15.26-15.85-17.87-12-3-25.07,7.49-24.13,12s16,2.1,29.23,13.8c2,1.8,3.38,3.36,3.93,5.55,2.35,9.27-11.44,22.29-19.9,21-1.14-.17-5.79-.88-7.71-4.29a8.23,8.23,0,0,1-.4-.86c-2-5.41,10.05-14.44,8.48-20.64-1.32-5.22-12.15-7.78-13.82-5.53-1.83,2.48,7.85,10.05,5.53,14.56s-13.8,1.87-14.37,4.42,10.06,5.76,9.58,8.84-11,3-11.06,4.79C58.29,168.77,80.79,169.3,82,175.57Z" transform="translate(2.5)"/><path class="cls-3" d="M90.2,148.17c-.21.61-1.2,3.42-2.42,3.38-1.46-.05-3.1-4.16-2.06-6.64s4.81-2.95,7.16-1.2a7.6,7.6,0,0,1,2.59,5,8.65,8.65,0,0,1-2.5,6.54c-2.8,2.89-7.62,2.76-12.08-.33" transform="translate(2.5)"/><path class="cls-5" d="M120.42,109.93H130V178h-9.54Zm4.16,30.22h23.21a8.89,8.89,0,0,0,4.82-1.31,8.64,8.64,0,0,0,3.25-3.72,14,14,0,0,0,0-11.08,8.66,8.66,0,0,0-3.23-3.72,8.84,8.84,0,0,0-4.84-1.31H124.58v-9.08h22.83a21.38,21.38,0,0,1,10.37,2.43,17.21,17.21,0,0,1,6.92,6.9,22.88,22.88,0,0,1,0,20.64,17.26,17.26,0,0,1-7,6.89,21.16,21.16,0,0,1-10.32,2.44H124.58Zm18.53,7,9.5-2.15L170,178H158.69Z" transform="translate(2.5)"/><path class="cls-5" d="M188.44,176.17a16.8,16.8,0,0,1-7.27-7.41A25.65,25.65,0,0,1,178.66,157v-5.48a28.7,28.7,0,0,1,2.41-12.3,17.27,17.27,0,0,1,7-7.77,21.64,21.64,0,0,1,11-2.66,17.51,17.51,0,0,1,10.38,3,18.9,18.9,0,0,1,6.57,8.79,37.49,37.49,0,0,1,2.27,13.8v3.18H185.59v-7.67h23.67q-.42-5.94-3.07-9.24a8.62,8.62,0,0,0-7.08-3.29q-5.43,0-8.4,3.55t-3,10.06v6.17c0,4,1.06,7.11,3.18,9.27s5.13,3.22,9,3.22a15.22,15.22,0,0,0,5.75-1.16,16.75,16.75,0,0,0,5.1-3.28l6.27,6.27A26.33,26.33,0,0,1,209,176.8a23,23,0,0,1-9,1.9A24.25,24.25,0,0,1,188.44,176.17Z" transform="translate(2.5)"/><path class="cls-5" d="M240.53,177.86a29.33,29.33,0,0,1-7-2.53,27.12,27.12,0,0,1-6-4.21l5.66-7a31.85,31.85,0,0,0,7.81,4.49,21.16,21.16,0,0,0,7.67,1.5q5.66,0,8.49-1.76a5.77,5.77,0,0,0,2.83-5.26,4.12,4.12,0,0,0-1.54-3.51,8.65,8.65,0,0,0-3.84-1.56q-2.29-.41-6.45-.73l-.8,0-.79-.07a2.43,2.43,0,0,1-.38,0l-.37,0a37.81,37.81,0,0,1-8-1.38A10.78,10.78,0,0,1,232.3,152c-1.45-1.83-2.18-4.47-2.18-7.9a16,16,0,0,1,2.11-8.56,12.7,12.7,0,0,1,6.27-5.12,27.57,27.57,0,0,1,10.43-1.71,36,36,0,0,1,7.23.7,31.84,31.84,0,0,1,12.6,5.57L263,142a32.06,32.06,0,0,0-7.18-3.51,21.92,21.92,0,0,0-6.9-1.17q-4.87,0-7.3,1.66a5.64,5.64,0,0,0-2.43,5,3.39,3.39,0,0,0,1.38,2.95,8.14,8.14,0,0,0,3.48,1.31c1.41.22,3.4.4,6,.56a3.7,3.7,0,0,0,.59.05,4.64,4.64,0,0,1,.63,0h.28a1,1,0,0,1,.28.05,41.32,41.32,0,0,1,8.68,1.36,11.66,11.66,0,0,1,6,4.07c1.62,2,2.43,5,2.43,8.79a15.53,15.53,0,0,1-2.25,8.68,13.52,13.52,0,0,1-6.76,5.17,32,32,0,0,1-11.34,1.73A37,37,0,0,1,240.53,177.86Z" transform="translate(2.5)"/><path class="cls-5" d="M277.37,129.44h21.89v8.61H277.37ZM285.11,175q-2.73-3.25-2.73-9.61V115.31h9.54v50.15a4.57,4.57,0,0,0,.7,2.74,2.39,2.39,0,0,0,2.06,1h4.58v9.07h-5.52C289.81,178.23,286.94,177.15,285.11,175Z" transform="translate(2.5)"/><path class="cls-5" d="M314.47,175q-4.46-3.72-4.45-11.3,0-7.2,4.07-10.8t12.31-3.61h13.8l.65,7.68H326.44q-3.74,0-5.59,1.66a6.48,6.48,0,0,0-1.84,5.07,6.31,6.31,0,0,0,2.45,5.48q2.46,1.77,7.46,1.77,5.47,0,8.17-1.17a3.84,3.84,0,0,0,2.69-3.64l1,6.83a11.12,11.12,0,0,1-3.11,3.22,13.35,13.35,0,0,1-4.28,1.9,21.89,21.89,0,0,1-5.48.63Q318.92,178.7,314.47,175Zm25.31-27.76c0-3.18-.85-5.66-2.55-7.42s-4.11-2.64-7.23-2.64a18.62,18.62,0,0,0-5.68.89,16.72,16.72,0,0,0-4.94,2.48l-7-4.78a18.2,18.2,0,0,1,7.27-5.16,26.13,26.13,0,0,1,10-1.85,23.12,23.12,0,0,1,10.34,2.13,14.77,14.77,0,0,1,6.55,6.17,19.9,19.9,0,0,1,2.24,9.75V178h-9.07Z" transform="translate(2.5)"/><path class="cls-5" d="M372.9,159q0,5.1,2.59,7.88c1.73,1.86,4.17,2.78,7.32,2.78s5.54-.82,7.26-2.48,2.57-4,2.57-7.06l.65,10.15a14,14,0,0,1-4.86,6,13.8,13.8,0,0,1-8.28,2.43q-8.06,0-12.42-5.17T363.35,159V129.44h9.55Zm19.74-29.52h9.5V178h-9.5Z" transform="translate(2.5)"/><path class="cls-5" d="M416.64,129.44h9.54V178h-9.54Zm23.53,9.17a11.55,11.55,0,0,0-4.45-.8,9.53,9.53,0,0,0-7,2.51,9.41,9.41,0,0,0-2.5,6.94l-1-9.35a17.81,17.81,0,0,1,5.8-6.76,13.68,13.68,0,0,1,7.86-2.41,17.79,17.79,0,0,1,6,1,13.43,13.43,0,0,1,4.7,2.83L443.35,141A8,8,0,0,0,440.17,138.61Z" transform="translate(2.5)"/><path class="cls-5" d="M459.63,175q-4.44-3.72-4.45-11.3,0-7.2,4.07-10.8t12.31-3.61h13.8L486,157h-14.4c-2.5,0-4.36.55-5.6,1.66a6.48,6.48,0,0,0-1.84,5.07,6.33,6.33,0,0,0,2.45,5.48q2.46,1.77,7.46,1.77,5.48,0,8.17-1.17a3.84,3.84,0,0,0,2.69-3.64l1,6.83a11.12,11.12,0,0,1-3.11,3.22,13.35,13.35,0,0,1-4.28,1.9,21.86,21.86,0,0,1-5.47.63Q464.08,178.7,459.63,175Zm25.31-27.76c0-3.18-.85-5.66-2.55-7.42s-4.11-2.64-7.23-2.64a18.62,18.62,0,0,0-5.68.89,16.84,16.84,0,0,0-4.94,2.48l-7-4.78a18.17,18.17,0,0,1,7.28-5.16,26,26,0,0,1,10-1.85,23.12,23.12,0,0,1,10.34,2.13,14.77,14.77,0,0,1,6.55,6.17,19.9,19.9,0,0,1,2.24,9.75V178h-9.07Z" transform="translate(2.5)"/><path class="cls-5" d="M508.52,129.44h9.54V178h-9.54ZM538,148.57q0-5.15-2.67-7.95a9.83,9.83,0,0,0-7.48-2.81q-4.68,0-7.23,2.48a9.29,9.29,0,0,0-2.55,7l-1-9.35a17.27,17.27,0,0,1,5.87-6.79,14.26,14.26,0,0,1,8-2.38q7.9,0,12.23,5.17t4.33,14.62V178H538Z" transform="translate(2.5)"/><path class="cls-5" d="M558.29,129.44h21.89v8.61H558.29ZM566,175q-2.73-3.25-2.73-9.61V115.31h9.54v50.15a4.57,4.57,0,0,0,.7,2.74,2.39,2.39,0,0,0,2.06,1h4.58v9.07h-5.52C570.73,178.23,567.86,177.15,566,175Z" transform="translate(2.5)"/><path class="cls-5" d="M620,110h9.54v68H620Zm4.68,0h38.12v9.07H624.63Zm0,30.31h33v9.08h-33Z" transform="translate(2.5)"/><path class="cls-5" d="M674,110h9.54v9.54H674Zm0,19.46h9.54V178H674Z" transform="translate(2.5)"/><path class="cls-5" d="M698,129.44h9.54V178H698Zm29.47,19.13q0-5.15-2.67-7.95a9.83,9.83,0,0,0-7.48-2.81q-4.68,0-7.23,2.48a9.29,9.29,0,0,0-2.55,7l-1-9.35a17.27,17.27,0,0,1,5.87-6.79,14.26,14.26,0,0,1,8-2.38q7.9,0,12.23,5.17T737,148.53V178H727.5Z" transform="translate(2.5)"/><path class="cls-5" d="M757.84,176.52a14.64,14.64,0,0,1-5.74-6.76,26.22,26.22,0,0,1-2-10.66V148.39a27,27,0,0,1,1.92-10.72,14.57,14.57,0,0,1,5.59-6.76,16.24,16.24,0,0,1,8.82-2.31,14.59,14.59,0,0,1,7.88,2.24,16.62,16.62,0,0,1,5.78,6.32l-1,9.92a11.51,11.51,0,0,0-1.12-5.29,7.61,7.61,0,0,0-3.25-3.34,10.7,10.7,0,0,0-5.17-1.15,9.22,9.22,0,0,0-7.32,2.95q-2.6,2.94-2.6,8.28V159.1q0,5.28,2.6,8.16a9.35,9.35,0,0,0,7.32,2.88,10.48,10.48,0,0,0,5.17-1.19,8,8,0,0,0,3.25-3.44,11.9,11.9,0,0,0,1.12-5.38l.66,10.24a13.85,13.85,0,0,1-4.75,6,13.3,13.3,0,0,1-8.12,2.43A17,17,0,0,1,757.84,176.52ZM779.14,110h9.55v68h-9.55Z" transform="translate(2.5)"/><path class="cls-5" d="M811.56,176.17a16.85,16.85,0,0,1-7.27-7.41,25.66,25.66,0,0,1-2.5-11.81v-5.48a28.55,28.55,0,0,1,2.41-12.3,17.19,17.19,0,0,1,7-7.77,21.67,21.67,0,0,1,11-2.66,17.51,17.51,0,0,1,10.38,3,19,19,0,0,1,6.58,8.79,37.7,37.7,0,0,1,2.27,13.8v3.18H808.71v-7.67h23.67q-.42-5.94-3.06-9.24a8.65,8.65,0,0,0-7.09-3.29q-5.43,0-8.4,3.55t-3,10.06v6.17c0,4,1.06,7.11,3.18,9.27s5.13,3.22,9,3.22a15.3,15.3,0,0,0,5.76-1.16,16.58,16.58,0,0,0,5.09-3.28l6.27,6.27a26.33,26.33,0,0,1-8.09,5.35,22.92,22.92,0,0,1-9,1.9A24.25,24.25,0,0,1,811.56,176.17Z" transform="translate(2.5)"/><path class="cls-5" d="M854.56,129.44h9.54V178h-9.54Zm23.53,9.17a11.55,11.55,0,0,0-4.45-.8,9.53,9.53,0,0,0-7,2.51,9.37,9.37,0,0,0-2.5,6.94l-1-9.35a17.73,17.73,0,0,1,5.8-6.76,13.68,13.68,0,0,1,7.86-2.41,17.83,17.83,0,0,1,6,1,13.43,13.43,0,0,1,4.7,2.83L881.27,141A8.1,8.1,0,0,0,878.09,138.61Z" transform="translate(2.5)"/><path class="cls-2" d="M922,175.59c-1,5.2,13.24,11.12,12.71,12.16s-20.6-1.57-32.79-17.87c-7.91-10.57-11.77-25.84-6.82-39.43,1.49-4.1,5.56-15.26,15.85-17.87,12-3,25.07,7.49,24.13,12s-16,2.1-29.23,13.8c-2,1.8-3.38,3.36-3.93,5.55-2.35,9.27,11.44,22.29,19.9,21,1.13-.17,5.79-.88,7.7-4.29a6.41,6.41,0,0,0,.4-.86c2-5.41-10-14.44-8.47-20.64,1.32-5.22,12.14-7.78,13.82-5.53,1.83,2.48-7.85,10-5.53,14.56s13.8,1.87,14.37,4.42-10.06,5.76-9.58,8.84,11,3,11.06,4.79C945.68,168.79,923.17,169.32,922,175.59Z" transform="translate(2.5)"/><path class="cls-3" d="M913.77,148.19c.21.61,1.2,3.42,2.42,3.38,1.46,0,3.09-4.16,2.06-6.64s-4.81-3-7.16-1.2-2.58,4.86-2.6,5a8.68,8.68,0,0,0,2.51,6.54c2.8,2.89,7.62,2.76,12.08-.33" transform="translate(2.5)"/><path class="cls-4" d="M964,175.57c1,5.2-13.24,11.12-12.71,12.16s20.6-1.57,32.79-17.87c7.91-10.57,11.77-25.84,6.82-39.43-1.49-4.1-5.56-15.26-15.85-17.87-12-3-25.07,7.49-24.13,12s16,2.1,29.23,13.8c2,1.8,3.38,3.36,3.93,5.55,2.35,9.27-11.44,22.29-19.9,21-1.13-.17-5.79-.88-7.7-4.29a6.41,6.41,0,0,1-.4-.86c-2-5.41,10-14.44,8.47-20.64-1.32-5.22-12.14-7.78-13.82-5.53-1.83,2.48,7.85,10.05,5.53,14.56s-13.8,1.87-14.37,4.42,10.06,5.76,9.58,8.84-11,3-11.06,4.79C940.32,168.77,962.83,169.3,964,175.57Z" transform="translate(2.5)"/><path class="cls-3" d="M972.23,148.17c-.21.61-1.2,3.42-2.42,3.38-1.46-.05-3.09-4.16-2.06-6.64s4.81-2.95,7.16-1.2,2.58,4.86,2.6,5a8.68,8.68,0,0,1-2.51,6.54c-2.8,2.89-7.62,2.76-12.08-.33" transform="translate(2.5)"/></svg>