<svg id="Camada_1" data-name="Camada 1" xmlns="http://www.w3.org/2000/svg" viewBox="0 0 1005 300"><defs><style>.cls-1{fill:#fff;}.cls-2,.cls-3,.cls-4,.cls-5{fill:#662d91;stroke-miterlimit:10;}.cls-2,.cls-3,.cls-4{stroke:#fff;}.cls-2{stroke-width:4px;}.cls-3{stroke-width:8px;}.cls-4{stroke-width:3px;}.cls-5{stroke:#662d91;}</style></defs><rect class="cls-1" width="1005" height="300"/><path class="cls-2" d="M130.73,232.85c-3.23,16.82,42.87,36,41.16,39.36C170,276,105.18,267.13,65.72,214.36c-25.59-34.22-38.1-83.65-22.07-127.65,4.83-13.26,18-49.41,51.29-57.85C133.87,19,176.11,53.1,173.08,67.63c-3.07,14.68-51.86,6.78-94.63,44.66-6.57,5.81-10.94,10.88-12.73,18-7.62,30,37,72.16,64.41,68,3.68-.56,18.76-2.85,25-13.91a22.08,22.08,0,0,0,1.3-2.79c6.5-17.51-32.52-46.73-27.44-66.8,4.28-16.91,39.32-25.2,44.73-17.9,5.94,8-25.4,32.54-17.89,47.12,7.31,14.18,44.68,6.08,46.52,14.32,1.79,8-32.58,18.66-31,28.63,1.52,9.68,35.51,9.77,35.79,15.51C207.48,210.83,134.62,212.54,130.73,232.85Z" transform="translate(2.5)"/><path class="cls-3" d="M104.19,144.16c.66,2,3.86,11.06,7.82,10.93,4.73-.16,10-13.48,6.66-21.52-3.47-8.29-15.56-9.53-23.17-3.88-7.36,5.47-8.36,15.75-8.4,16.23-1,11.76,6.81,19.82,8.11,21.16,9.07,9.38,24.66,9,39.1-1.05" transform="translate(2.5)"/><path class="cls-4" d="M266.88,232.78c3.23,16.83-42.87,36-41.16,39.37,1.91,3.77,66.71-5.09,106.17-57.86C357.48,180.07,370,130.65,354,86.65c-4.83-13.27-18-49.41-51.29-57.86C263.74,18.92,221.49,53,224.53,67.56c3.07,14.69,51.86,6.78,94.63,44.66,6.57,5.81,10.94,10.89,12.73,18,7.61,30-37,72.15-64.41,68-3.68-.57-18.76-2.86-25-13.91a22.61,22.61,0,0,1-1.3-2.8c-6.51-17.51,32.51-46.73,27.44-66.8-4.28-16.91-39.32-25.2-44.74-17.89-5.93,8,25.41,32.53,17.9,47.12-7.31,14.17-44.68,6.07-46.53,14.31-1.78,8,32.59,18.66,31,28.63-1.52,9.69-35.51,9.77-35.79,15.51C190.13,210.76,263,212.47,266.88,232.78Z" transform="translate(2.5)"/><path class="cls-3" d="M293.42,144.09c-.66,2-3.86,11.07-7.82,10.93-4.73-.15-10-13.48-6.66-21.51,3.47-8.29,15.56-9.54,23.17-3.88,7.36,5.46,8.36,15.75,8.4,16.22,1,11.77-6.81,19.83-8.11,21.17-9.07,9.38-24.66,9-39.1-1.06" transform="translate(2.5)"/><path class="cls-5" d="M408.18,121.14h6.87v49h-6.87Zm3,21.77h16.71a6.43,6.43,0,0,0,3.47-.95,6.17,6.17,0,0,0,2.34-2.67,10,10,0,0,0,0-8,6.22,6.22,0,0,0-2.32-2.68,6.4,6.4,0,0,0-3.49-.94H411.18v-6.54h16.44a15.43,15.43,0,0,1,7.46,1.75,12.31,12.31,0,0,1,5,5,15.2,15.2,0,0,1,1.77,7.43,15,15,0,0,1-1.79,7.43,12.33,12.33,0,0,1-5,5,15.25,15.25,0,0,1-7.43,1.75H411.18Zm13.34,5,6.84-1.55,12.53,23.78h-8.15Z" transform="translate(2.5)"/><path class="cls-5" d="M457.17,168.85a12.13,12.13,0,0,1-5.24-5.34,18.51,18.51,0,0,1-1.8-8.51v-3.94a20.71,20.71,0,0,1,1.73-8.86,12.43,12.43,0,0,1,5-5.59,15.55,15.55,0,0,1,8-1.92,12.64,12.64,0,0,1,7.48,2.19,13.58,13.58,0,0,1,4.73,6.33,27.08,27.08,0,0,1,1.64,9.94v2.29H455.11v-5.52h17.05a11.81,11.81,0,0,0-2.2-6.66,6.23,6.23,0,0,0-5.11-2.37,7.45,7.45,0,0,0-6.05,2.56c-1.42,1.7-2.14,4.12-2.14,7.24v4.45q0,4.35,2.3,6.67a8.7,8.7,0,0,0,6.5,2.32,10.86,10.86,0,0,0,4.14-.84,11.84,11.84,0,0,0,3.67-2.36l4.52,4.52A18.84,18.84,0,0,1,472,169.3a16.6,16.6,0,0,1-6.5,1.37A17.53,17.53,0,0,1,457.17,168.85Z" transform="translate(2.5)"/><path class="cls-5" d="M494.68,170.06a21.1,21.1,0,0,1-5.07-1.82,19.57,19.57,0,0,1-4.34-3l4.07-5a23.16,23.16,0,0,0,5.63,3.24,15.46,15.46,0,0,0,5.53,1.07,11.83,11.83,0,0,0,6.11-1.26,4.17,4.17,0,0,0,2-3.79,3,3,0,0,0-1.11-2.53,6.39,6.39,0,0,0-2.76-1.13c-1.11-.19-2.65-.36-4.65-.52h-.58l-.57,0-.27,0-.27,0a27.38,27.38,0,0,1-5.76-1,7.9,7.9,0,0,1-3.93-2.72,9,9,0,0,1-1.56-5.69,11.55,11.55,0,0,1,1.51-6.16,9.23,9.23,0,0,1,4.52-3.69,19.89,19.89,0,0,1,7.51-1.23,26.54,26.54,0,0,1,5.21.5,23.13,23.13,0,0,1,9.08,4l-4.15,5a23,23,0,0,0-5.17-2.52,15.5,15.5,0,0,0-5-.85,9.33,9.33,0,0,0-5.25,1.2,4.06,4.06,0,0,0-1.76,3.59,2.44,2.44,0,0,0,1,2.12,5.73,5.73,0,0,0,2.51.94c1,.16,2.45.3,4.31.41l.42,0,.46,0h.2a.71.71,0,0,1,.2,0,29.61,29.61,0,0,1,6.25,1,8.4,8.4,0,0,1,4.33,2.93q1.76,2.19,1.75,6.33a11.27,11.27,0,0,1-1.61,6.25,9.8,9.8,0,0,1-4.87,3.72,23,23,0,0,1-8.17,1.25A26.31,26.31,0,0,1,494.68,170.06Z" transform="translate(2.5)"/><path class="cls-5" d="M521.22,135.19H537v6.2H521.22Zm5.57,32.8q-2-2.34-2-6.92V125h6.87v36.11a3.29,3.29,0,0,0,.51,2,1.72,1.72,0,0,0,1.48.69H537v6.53h-4Q528.76,170.33,526.79,168Z" transform="translate(2.5)"/><path class="cls-5" d="M547.93,168c-2.13-1.78-3.2-4.5-3.2-8.14,0-3.45,1-6,2.93-7.78s4.91-2.59,8.87-2.59h9.93l.48,5.52H556.56a5.86,5.86,0,0,0-4,1.2,4.69,4.69,0,0,0-1.33,3.65,4.56,4.56,0,0,0,1.77,4,9.2,9.2,0,0,0,5.37,1.28,15.33,15.33,0,0,0,5.88-.85,2.77,2.77,0,0,0,1.94-2.62l.71,4.92a8.26,8.26,0,0,1-2.24,2.32,9.65,9.65,0,0,1-3.09,1.36,15.33,15.33,0,0,1-3.94.46Q551.14,170.67,547.93,168Zm18.23-20a7.36,7.36,0,0,0-1.83-5.34,6.91,6.91,0,0,0-5.21-1.91,13.24,13.24,0,0,0-4.09.64,12,12,0,0,0-3.56,1.79l-5-3.44a13.21,13.21,0,0,1,5.24-3.72,18.88,18.88,0,0,1,7.23-1.33,16.65,16.65,0,0,1,7.44,1.53,10.6,10.6,0,0,1,4.72,4.45,14.23,14.23,0,0,1,1.62,7v22.47h-6.54Z" transform="translate(2.5)"/><path class="cls-5" d="M590,156.45a8.05,8.05,0,0,0,1.87,5.68,6.9,6.9,0,0,0,5.28,2,7.23,7.23,0,0,0,5.22-1.78,6.76,6.76,0,0,0,1.85-5.09l.47,7.31a10.07,10.07,0,0,1-3.5,4.35,9.91,9.91,0,0,1-6,1.75q-5.81,0-9-3.72c-2.1-2.49-3.15-6-3.15-10.5V135.19H590Zm14.22-21.26h6.84v35h-6.84Z" transform="translate(2.5)"/><path class="cls-5" d="M621.52,135.19h6.87v35h-6.87Zm16.94,6.61a8.16,8.16,0,0,0-3.2-.58,6.26,6.26,0,0,0-6.87,6.81l-.71-6.74a12.86,12.86,0,0,1,4.18-4.87,9.92,9.92,0,0,1,5.66-1.73,12.85,12.85,0,0,1,4.33.69,9.6,9.6,0,0,1,3.38,2l-4.48,6.06A5.7,5.7,0,0,0,638.46,141.8Z" transform="translate(2.5)"/><path class="cls-5" d="M652.48,168c-2.14-1.78-3.2-4.5-3.2-8.14,0-3.45,1-6,2.93-7.78s4.91-2.59,8.86-2.59H671l.47,5.52H661.1a5.84,5.84,0,0,0-4,1.2,4.65,4.65,0,0,0-1.33,3.65,4.57,4.57,0,0,0,1.76,4,9.24,9.24,0,0,0,5.38,1.28,15.33,15.33,0,0,0,5.88-.85,2.77,2.77,0,0,0,1.94-2.62l.7,4.92a8,8,0,0,1-2.24,2.32,9.5,9.5,0,0,1-3.08,1.36,15.39,15.39,0,0,1-3.94.46Q655.67,170.67,652.48,168Zm18.23-20a7.37,7.37,0,0,0-1.84-5.34,6.91,6.91,0,0,0-5.21-1.91,13.29,13.29,0,0,0-4.09.64,12,12,0,0,0-3.55,1.79l-5-3.44a13.17,13.17,0,0,1,5.23-3.72,18.88,18.88,0,0,1,7.23-1.33,16.7,16.7,0,0,1,7.45,1.53,10.58,10.58,0,0,1,4.71,4.45,14.23,14.23,0,0,1,1.62,7v22.47h-6.53Z" transform="translate(2.5)"/><path class="cls-5" d="M687.69,135.19h6.87v35h-6.87ZM708.91,149a8,8,0,0,0-1.92-5.73,8.33,8.33,0,0,0-10.6-.23,6.69,6.69,0,0,0-1.83,5l-.71-6.74a12.46,12.46,0,0,1,4.23-4.88,10.26,10.26,0,0,1,5.78-1.72q5.68,0,8.81,3.72t3.11,10.53v21.22h-6.87Z" transform="translate(2.5)"/><path class="cls-5" d="M723.53,135.19H739.3v6.2H723.53Zm5.58,32.8c-1.32-1.56-2-3.87-2-6.92V125H734v36.11a3.29,3.29,0,0,0,.51,2,1.71,1.71,0,0,0,1.48.69h3.3v6.53h-4C732.5,170.33,730.42,169.55,729.11,168Z" transform="translate(2.5)"/><path class="cls-5" d="M767.94,121.18h6.87v49h-6.87Zm3.37,0h27.46v6.53H771.31Zm0,21.83h23.75v6.53H771.31Z" transform="translate(2.5)"/><path class="cls-5" d="M806.85,121.18h6.88v6.87h-6.88Zm0,14h6.88v35h-6.88Z" transform="translate(2.5)"/><path class="cls-5" d="M824.17,135.19H831v35h-6.87ZM845.4,149a8,8,0,0,0-1.93-5.73,7.08,7.08,0,0,0-5.39-2,7.15,7.15,0,0,0-5.2,1.79,6.65,6.65,0,0,0-1.84,5l-.7-6.74a12.36,12.36,0,0,1,4.22-4.88,10.26,10.26,0,0,1,5.78-1.72q5.7,0,8.81,3.72t3.12,10.53v21.22H845.4Z" transform="translate(2.5)"/><path class="cls-5" d="M867.24,169.1a10.5,10.5,0,0,1-4.12-4.87,18.77,18.77,0,0,1-1.42-7.68v-7.71a19.48,19.48,0,0,1,1.38-7.72,10.55,10.55,0,0,1,4-4.87,11.67,11.67,0,0,1,6.35-1.66,10.54,10.54,0,0,1,5.68,1.61,12,12,0,0,1,4.16,4.55l-.71,7.14a8.23,8.23,0,0,0-.81-3.8,5.51,5.51,0,0,0-2.34-2.41,7.75,7.75,0,0,0-3.72-.83,6.65,6.65,0,0,0-5.27,2.12,8.74,8.74,0,0,0-1.87,6v7.61a8.46,8.46,0,0,0,1.87,5.88,6.72,6.72,0,0,0,5.27,2.07,7.42,7.42,0,0,0,3.72-.86,5.65,5.65,0,0,0,2.34-2.47,8.58,8.58,0,0,0,.81-3.88l.47,7.38a9.88,9.88,0,0,1-3.42,4.35,9.54,9.54,0,0,1-5.84,1.75A12.32,12.32,0,0,1,867.24,169.1Zm15.35-47.92h6.87v49h-6.87Z" transform="translate(2.5)"/><path class="cls-5" d="M905.94,168.85a12.13,12.13,0,0,1-5.24-5.34,18.51,18.51,0,0,1-1.8-8.51v-3.94a20.71,20.71,0,0,1,1.73-8.86,12.43,12.43,0,0,1,5-5.59,15.55,15.55,0,0,1,8-1.92,12.64,12.64,0,0,1,7.48,2.19,13.58,13.58,0,0,1,4.73,6.33,27.08,27.08,0,0,1,1.64,9.94v2.29H903.88v-5.52h17a11.74,11.74,0,0,0-2.21-6.66,6.19,6.19,0,0,0-5.1-2.37,7.44,7.44,0,0,0-6,2.56c-1.42,1.7-2.14,4.12-2.14,7.24v4.45c0,2.9.77,5.12,2.29,6.67a8.74,8.74,0,0,0,6.51,2.32,10.86,10.86,0,0,0,4.14-.84,12,12,0,0,0,3.67-2.36l4.52,4.52a18.84,18.84,0,0,1-5.83,3.85,16.6,16.6,0,0,1-6.5,1.37A17.53,17.53,0,0,1,905.94,168.85Z" transform="translate(2.5)"/><path class="cls-5" d="M936.9,135.19h6.87v35H936.9Zm17,6.61a8.16,8.16,0,0,0-3.2-.58,6.28,6.28,0,0,0-6.88,6.81l-.7-6.74a12.86,12.86,0,0,1,4.18-4.87,9.89,9.89,0,0,1,5.66-1.73,12.79,12.79,0,0,1,4.32.69,9.64,9.64,0,0,1,3.39,2l-4.48,6.06A5.77,5.77,0,0,0,953.85,141.8Z" transform="translate(2.5)"/></svg>